# xmcd CD database file generated by MAGIX-FreeDB-PlayR v2.0beta1
# 
# Track frame offsets:
#      150
#      12242
#      25230
#      37013
#      53234
#      67205
#      80277
#      96527
#      106643
#      117609
#      129837
#      141486
#      154864
#      172558
#      187456
#      203633
#      220716
#      236009
#      253030
# 
# Disc length: 3546 seconds
# 
# Revision: 1 
# Processed by: cddbd v1.5.2PL0 Copyright (c) Steve Scherf et al.
# Submitted via: MAGIX-FreeDB-PlayR v2.0beta1
# 
DISCID=100dd813
DTITLE=Diverse - The Greatest Country Hits
DYEAR=2005
DGENRE=Country
TTITLE0=Diverse - Ring Of Fire
TTITLE1=Diverse - Rose Garden
TTITLE2=Diverse - The Most Beautiful Girl
TTITLE3=Diverse - Lucille
TTITLE4=Diverse - Cold Cold HeartTitle 05
TTITLE5=Diverse - King Of The Road
TTITLE6=Diverse - Me And Bobby McGee
TTITLE7=Diverse - Six Days on The Road
TTITLE8=Diverse - On The Road Again
TTITLE9=Diverse - Stand By Your Man
TTITLE10=Diverse - Jolene
TTITLE11=Diverse - Ruby, Don'tTake Your Love To Town
TTITLE12=Diverse - Man! I Feel Like A Woman
TTITLE13=Diverse - This Kiss
TTITLE14=Diverse - You're Still The One
TTITLE15=Diverse - Standing Outside The FireTitle 16
TTITLE16=Diverse - Achy Breaky Heart
TTITLE17=Diverse - We've Got Tonight
TTITLE18=Diverse - Xxx's and Ooo's An American Girl
EXTD=ID3G:   2 YEAR: 2005
EXTT0=
EXTT1=
EXTT2=
EXTT3=
EXTT4=
EXTT5=
EXTT6=
EXTT7=
EXTT8=
EXTT9=
EXTT10=
EXTT11=
EXTT12=
EXTT13=
EXTT14=
EXTT15=
EXTT16=
EXTT17=
EXTT18=
PLAYORDER=
